<?xml version="1.0" encoding="UTF-8"?>
<svg width="29px" height="28px" viewBox="0 0 29 28" version="1.1" xmlns="http://www.w3.org/2000/svg" xmlns:xlink="http://www.w3.org/1999/xlink">
    <!-- Generator: Sketch 51.3 (57544) - http://www.bohemiancoding.com/sketch -->
    <title>LinkedIn</title>
    <desc>Created with Sketch.</desc>
    <defs></defs>
    <g id="Page-1" stroke="none" stroke-width="1" fill="none" fill-rule="evenodd">
        <g id="Desktop-HD" transform="translate(-261.000000, -544.000000)" fill="#9B9B9B" fill-rule="nonzero">
            <g id="linkedin-logo" transform="translate(261.000000, 544.000000)">
                <path d="M28.8963211,17.0874113 L28.8963211,28 L22.5868186,28 L22.5868186,17.8182707 C22.5868186,15.2605373 21.6742171,13.5149843 19.3903863,13.5149843 C17.6469711,13.5149843 16.6094636,14.6913591 16.1530259,15.8293038 C15.9865757,16.2361145 15.9437312,16.8023418 15.9437312,17.3717945 L15.9437312,28 L9.63210702,28 C9.63210702,28 9.7171116,10.7554925 9.63210702,8.96883293 L15.9431153,8.96883293 L15.9431153,11.6664247 C15.9303167,11.6866005 15.9136853,11.7083547 15.9016396,11.727913 L15.9431153,11.727913 L15.9431153,11.6664247 C16.7815944,10.371534 18.2790301,8.52173913 21.6307566,8.52173913 C25.7833192,8.52167051 28.8963211,11.2417714 28.8963211,17.0874113 Z M3.63404651,0 C1.43703025,0 0,1.31417801 0,3.04236686 C0,4.73289528 1.39545492,6.08695652 3.54880662,6.08695652 L3.59170513,6.08695652 C5.83127169,6.08695652 7.22408027,4.73314931 7.22408027,3.04236686 C7.18187817,1.31417801 5.83127169,0 3.63404651,0 Z M0,28 L6.02006689,28 L6.02006689,8.52173913 L0,8.52173913 L0,28 Z" id="LinkedIn"></path>
            </g>
        </g>
    </g>
</svg>