<?xml version="1.0" encoding="UTF-8"?>
<svg width="29px" height="28px" viewBox="0 0 29 28" version="1.1" xmlns="http://www.w3.org/2000/svg" xmlns:xlink="http://www.w3.org/1999/xlink">
    <!-- Generator: Sketch 51.3 (57544) - http://www.bohemiancoding.com/sketch -->
    <title>github-logo (1)</title>
    <desc>Created with Sketch.</desc>
    <defs></defs>
    <g id="Page-1" stroke="none" stroke-width="1" fill="none" fill-rule="evenodd">
        <g id="Desktop-HD" transform="translate(-375.000000, -544.000000)" fill="#9B9B9B" fill-rule="nonzero">
            <g id="github-logo-(1)" transform="translate(375.000000, 544.000000)">
                <path d="M26.6148619,7.14747986 C25.3393219,4.94867818 23.6091334,3.20788383 21.423841,1.92470412 C19.2382233,0.64145896 16.8521804,0 14.2640208,0 C11.6761865,0 9.28936299,0.641655305 7.10420068,1.92470412 C4.91871312,3.20781838 3.18858967,4.94867818 1.91304972,7.14747986 C0.637704924,9.34621608 0,11.7472531 0,14.3505253 C0,17.4776459 0.906825118,20.2896329 2.72093072,22.7872061 C4.53484116,25.2849757 6.87814492,27.0133349 9.75064684,27.97248 C10.0850142,28.0349177 10.3325371,27.9910019 10.4934758,27.8418452 C10.6544796,27.6924921 10.7348839,27.5054408 10.7348839,27.2814767 C10.7348839,27.2441057 10.7316963,26.9078977 10.7255164,26.2724599 C10.7191413,25.6370222 10.7161489,25.082675 10.7161489,24.60968 L10.2889523,24.6840293 C10.0165795,24.7342281 9.67297473,24.7554988 9.25813802,24.7494776 C8.84349646,24.7436527 8.41304727,24.6999332 7.9673759,24.6186464 C7.52150937,24.5380795 7.10680276,24.3512246 6.72293081,24.0584743 C6.33925401,23.7657239 6.06688122,23.382524 5.90587748,22.9094636 L5.72015397,22.4794682 C5.59635998,22.1931972 5.40146414,21.8751838 5.13520623,21.5266061 C4.86894832,21.1777011 4.59969802,20.9411709 4.32732523,20.8166228 L4.19728625,20.7229662 C4.11063696,20.6607249 4.03023267,20.5856556 3.95587821,20.4985439 C3.88158881,20.4114322 3.82596933,20.3242551 3.78882463,20.236947 C3.75161488,20.1495735 3.78244953,20.0779076 3.88165386,20.0216875 C3.98085819,19.9654674 4.16014154,19.9381754 4.42028456,19.9381754 L4.79160147,19.9940029 C5.0392545,20.0439399 5.34558445,20.1930966 5.71098163,20.4423893 C6.07618366,20.6914856 6.37639872,21.0153238 6.61169186,21.4137732 C6.8966197,21.9246628 7.23989919,22.3139494 7.64250612,22.5818293 C8.0447878,22.8497093 8.45038712,22.9834202 8.85891379,22.9834202 C9.26744046,22.9834202 9.6202826,22.9522668 9.91757032,22.8902872 C10.2145328,22.8279804 10.4931506,22.7343239 10.7532936,22.6098412 C10.8647277,21.7748516 11.1681303,21.1333926 11.6632412,20.6850062 C10.9575569,20.6103951 10.3231046,20.4980203 9.75955897,20.3486018 C9.1963386,20.198987 8.61431821,19.9561737 8.01388809,19.6195076 C7.41313271,19.2832996 6.91476921,18.8658048 6.51866748,18.3677431 C6.12250069,17.8694196 5.79737071,17.2151982 5.5437329,16.405668 C5.28996498,15.5958105 5.16304849,14.6616012 5.16304849,13.6027783 C5.16304849,12.0951763 5.65223966,10.8122584 6.63042684,9.75330462 C6.17220043,8.61987065 6.21546002,7.34925702 6.76033572,5.94159461 C7.11942285,5.82935074 7.65193867,5.91358273 8.35762295,6.19376697 C9.06343733,6.47408212 9.58021056,6.71421199 9.90846304,6.91330578 C10.2367155,7.11233411 10.4997208,7.28099442 10.6978693,7.41778141 C11.8496152,7.09400858 13.0381806,6.93208944 14.2638907,6.93208944 C15.4896008,6.93208944 16.6784265,7.09400858 17.8302375,7.41778141 L18.5359868,6.96952588 C19.0186077,6.67042707 19.5885284,6.39632952 20.2443829,6.14716777 C20.9006276,5.89813692 21.4024389,5.82954709 21.7492962,5.94179095 C22.3062716,7.34951881 22.3559063,8.620067 21.8975498,9.75350096 C22.8756719,10.8124547 23.3650582,12.0956999 23.3650582,13.6029747 C23.3650582,14.6617975 23.2376864,15.598952 22.9843088,16.4150271 C22.7306059,17.231233 22.4026787,17.8847999 22.000397,18.3771022 C21.59766,18.869339 21.0961089,19.2835614 20.4956788,19.6197039 C19.8951186,19.9561083 19.312903,20.1989215 18.7496827,20.3485364 C18.1862021,20.4981512 17.5517498,20.6105915 16.8460655,20.6853334 C17.4896902,21.2457019 17.8115675,22.1302359 17.8115675,23.3385428 L17.8115675,27.2809531 C17.8115675,27.5049172 17.8889794,27.6919031 18.0439333,27.8413216 C18.1986921,27.9904783 18.4430925,28.0343941 18.7774599,27.971891 C21.6503521,27.0128768 23.9936559,25.2844521 25.8075013,22.7866826 C27.6211515,20.2891093 28.5283019,17.4771224 28.5283019,14.3500017 C28.5276514,11.7470567 27.8896212,9.34621608 26.6148619,7.14747986 Z" id="Shape"></path>
            </g>
        </g>
    </g>
</svg>