<?xml version="1.0" encoding="UTF-8"?>
<svg width="12px" height="14px" viewBox="0 0 12 14" version="1.1" xmlns="http://www.w3.org/2000/svg" xmlns:xlink="http://www.w3.org/1999/xlink">
    <!-- Generator: Sketch 51.3 (57544) - http://www.bohemiancoding.com/sketch -->
    <title>link</title>
    <desc>Created with Sketch.</desc>
    <defs></defs>
    <g id="Page-1" stroke="none" stroke-width="1" fill="none" fill-rule="evenodd">
        <g id="Desktop-HD" transform="translate(-324.000000, -2806.000000)" fill="#9B9B9B" fill-rule="nonzero">
            <g id="Group-5" transform="translate(90.000000, 2598.000000)">
                <g id="Group-3">
                    <g id="Group-4" transform="translate(28.000000, 200.000000)">
                        <g id="link" transform="translate(206.000000, 8.620690)">
                            <path d="M10.0084007,2.73325774 L4.78973462,8.58451331 C4.50439089,8.85476537 4.08158454,8.83316391 3.81934433,8.53493541 C3.55710413,8.23670691 3.54383693,7.76239067 3.78889455,7.44632387 L8.99326291,1.60308372 L6.43397187,1.60308372 C6.03915137,1.60308372 5.71908611,1.2442212 5.71908611,0.801541859 C5.71908611,0.358862514 6.03915137,8.13188764e-17 6.43397187,0 L10.7232865,0 C11.118107,2.71062921e-17 11.4381722,0.358862514 11.4381722,0.801541859 L11.4381722,5.61079301 C11.4381722,6.05347236 11.118107,6.41233487 10.7232865,6.41233487 C10.3284659,6.41233487 10.0084007,6.05347236 10.0084007,5.61079301 L10.0084007,2.73325774 Z M8.57862916,8.81696045 C8.57862916,8.3742811 8.89869442,8.01541859 9.29351493,8.01541859 C9.68833543,8.01541859 10.0084007,8.3742811 10.0084007,8.81696045 L10.0084007,11.221586 C10.0084007,12.1069447 9.36827017,12.8246697 8.57862916,12.8246697 L1.42977153,12.8246697 C0.640130517,12.8246697 9.67031336e-17,12.1069447 0,11.221586 L0,3.20616744 C0,2.32447139 0.643397187,1.60308372 1.42977153,1.60308372 L3.57442882,1.60308372 C3.96924932,1.60308372 4.28931458,1.96194623 4.28931458,2.40462558 C4.28931458,2.84730492 3.96924932,3.20616744 3.57442882,3.20616744 L1.42977153,3.20616744 L1.42977153,11.221586 L8.57862916,11.221586 L8.57862916,8.81696045 Z" id="Shape"></path>
                        </g>
                    </g>
                </g>
            </g>
        </g>
    </g>
</svg>